<?xml version="1.0" encoding="utf-8"?>
<!-- Generator: Adobe Illustrator 18.0.0, SVG Export Plug-In . SVG Version: 6.00 Build 0)  -->
<!DOCTYPE svg PUBLIC "-//W3C//DTD SVG 1.0//EN" "http://www.w3.org/TR/2001/REC-SVG-20010904/DTD/svg10.dtd">
<svg version="1.0" id="Icons" xmlns="http://www.w3.org/2000/svg" xmlns:xlink="http://www.w3.org/1999/xlink" x="0px" y="0px"
	 viewBox="0 0 64 64" enable-background="new 0 0 64 64" xml:space="preserve">
<path fill="#7ECBF5" d="M32,18c7.7,0,14,6.3,14,14c0,6.1-4,11.4-9.5,13.2v3.1C43.7,46.4,49,39.8,49,32c0-9.4-7.6-17-17-17
	s-17,7.6-17,17c0,7.8,5.3,14.4,12.5,16.4v-3.1C22,43.4,18,38.1,18,32C18,24.3,24.3,18,32,18z"/>
<path fill="#7ECBF5" d="M32,4C16.5,4,4,16.5,4,32c0,13.9,10.2,25.5,23.5,27.6v-3C15.9,54.5,7,44.3,7,32C7,18.2,18.2,7,32,7
	s25,11.2,25,25c0,12.2-8.9,22.5-20.5,24.6v3C49.8,57.5,60,45.9,60,32C60,16.5,47.5,4,32,4z"/>
<path fill="#808083" d="M38,32c0-3.3-2.7-6-6-6s-6,2.7-6,6c0,2.8,1.9,5.1,4.5,5.8v21.9h3V37.8C36.1,37.1,38,34.8,38,32z"/>
</svg>
